<?xml version="1.0" ?><svg viewBox="0 0 256 256" xmlns="http://www.w3.org/2000/svg"><defs><style>.cls-1{fill:#cbecf9;}.cls-2{fill:#fff;}.cls-3{fill:#2fb1ea;}.cls-4{fill:#90fc95;}.cls-5{fill:#ffd659;}.cls-6{fill:#ffc444;}.cls-7{fill:#ffb32f;}.cls-8{fill:#ffe76e;}.cls-9{fill:#d4ffd4;}.cls-10{fill:#ffbdbd;}.cls-11{fill:#bbf1ff;}.cls-12{fill:#fff4c5;}</style></defs><title/><g data-name="Layer 2" id="Layer_2"><path class="cls-1" d="M232,36V232l-28-28.79L176,232l-28-28.79L120,232,92,203.79,64,232V36A12,12,0,0,1,76,24H220A12,12,0,0,1,232,36Z"/><path class="cls-2" d="M220.5,36V205.5L204,187.85l-28,28.79-28-28.79-28,28.79L92,188.43,64,216.64V36A12,12,0,0,1,76,24H208.5A12,12,0,0,1,220.5,36Z"/><path class="cls-3" d="M232,234a2,2,0,0,1-1.43-.61L204,206.08l-26.57,27.32a2.06,2.06,0,0,1-2.87,0L148,206.08l-26.57,27.32A2,2,0,0,1,120,234h0a2,2,0,0,1-1.42-.59L92,206.63,65.42,233.41A2,2,0,0,1,62,232V36A14,14,0,0,1,76,22H220a14,14,0,0,1,14,14V232a2,2,0,0,1-2,2ZM92,201.79a2,2,0,0,1,1.42.59L120,229.15l26.58-27.33a2.06,2.06,0,0,1,2.87,0L176,229.13l26.57-27.32a2.06,2.06,0,0,1,2.87,0L230,227.08V36a10,10,0,0,0-10-10H76A10,10,0,0,0,66,36V227.15l24.58-24.76A2,2,0,0,1,92,201.79Z"/><path class="cls-4" d="M163,165.79H84a6,6,0,0,1,0-12h79a6,6,0,0,1,0,12Z"/><path class="cls-4" d="M129.85,50H84a6,6,0,0,1,0-12h45.85a6,6,0,0,1,0,12Z"/><path class="cls-4" d="M199.49,78.95H84a6,6,0,0,1,0-12H199.49a6,6,0,0,1,0,12Z"/><path class="cls-4" d="M199.49,107.9H84a6,6,0,0,1,0-12H199.49a6,6,0,0,1,0,12Z"/><path class="cls-4" d="M163,136.84H84a6,6,0,0,1,0-12h79a6,6,0,1,1,0,12Z"/><rect class="cls-5" height="50.48" width="80" x="24" y="81.76"/><polygon class="cls-6" points="103.56 89.34 104 81.76 24.61 81.76 24.61 89.48 64 123.05 103.56 89.34"/><path class="cls-3" d="M104,134.24H24a2,2,0,0,1-2-2V81.76a2,2,0,0,1,2-2h80a2,2,0,0,1,2,2v50.48A2,2,0,0,1,104,134.24Zm-78-4h76V83.76H26Z"/><polygon class="cls-7" points="104 132.24 64 107 24 132.24 104 132.24"/><polygon class="cls-6" points="89.5 128 63.7 113.22 38.5 128 89.5 128"/><path class="cls-3" d="M104,134.24H24a2,2,0,0,1-1.07-3.69l40-25.24a2,2,0,0,1,2.13,0l40,25.24a2,2,0,0,1-1.07,3.69Zm-73.08-4H97.08L64,109.36Z"/><polygon class="cls-8" points="104 81.76 64 115.84 24 81.76 104 81.76"/><path class="cls-3" d="M64,117.84a2,2,0,0,1-1.3-.48l-40-34.08A2,2,0,0,1,24,79.76h80a2,2,0,0,1,1.3,3.52l-40,34.08A2,2,0,0,1,64,117.84ZM29.43,83.76,64,113.22,98.57,83.76Z"/><path class="cls-8" d="M204.1,155.29h-9.22a3.4,3.4,0,0,1,0-6.8H212a4.5,4.5,0,0,0,0-9h-8v-3.4a4.5,4.5,0,0,0-9,0v3.4h-.11a12.4,12.4,0,0,0,0,24.8h9.22a3.4,3.4,0,0,1,0,6.81H187a4.5,4.5,0,0,0,0,9h8v3.4a4.5,4.5,0,0,0,9,0v-3.4h.11a12.4,12.4,0,0,0,0-24.81Z"/><circle class="cls-9" cx="7" cy="123" r="5"/><circle class="cls-9" cx="128" cy="248" r="4"/><circle class="cls-9" cx="248" cy="141" r="3"/><circle class="cls-9" cx="189" cy="6" r="2"/><circle class="cls-9" cx="240" cy="50" r="1"/><circle class="cls-10" cx="245" cy="121" r="5"/><circle class="cls-10" cx="223" cy="10" r="4"/><circle class="cls-10" cx="19" cy="149" r="3"/><circle class="cls-10" cx="24" cy="59" r="2"/><circle class="cls-10" cx="85" cy="16" r="1"/><circle class="cls-11" cx="45" cy="234" r="5"/><circle class="cls-11" cx="245" cy="176" r="4"/><circle class="cls-11" cx="131" cy="12" r="3"/><circle class="cls-11" cx="225" cy="238" r="2"/><circle class="cls-11" cx="208" cy="227" r="1"/><circle class="cls-12" cx="19" cy="190" r="5"/><circle class="cls-12" cx="250" cy="79" r="4"/><circle class="cls-12" cx="175" cy="243" r="3"/><circle class="cls-12" cx="42" cy="207" r="2"/><circle class="cls-12" cx="157" cy="15" r="1"/></g></svg>